<?xml version="1.0" encoding="UTF-8"?>
<svg width="285px" height="354px" viewBox="0 0 285 354" version="1.1" xmlns="http://www.w3.org/2000/svg" xmlns:xlink="http://www.w3.org/1999/xlink">
    <!-- Generator: Sketch 41.2 (35397) - http://www.bohemiancoding.com/sketch -->
    <title>edit info</title>
    <desc>Created with Sketch.</desc>
    <defs></defs>
    <g id="Android-Screens" stroke="none" stroke-width="1" fill="none" fill-rule="evenodd">
        <g id="Edit-on-the-fly" transform="translate(-38.000000, -119.000000)">
            <g id="edit-info" transform="translate(38.000000, 119.000000)">
                <g id="text" transform="translate(12.000000, 278.000000)" font-weight="400" font-family="SFUIText-Medium, SF UI Text">
                    <text id="Edit-info-on-the-fly" font-size="24" letter-spacing="-0.578823507" fill="#FDFDFE">
                        <tspan x="0" y="23">Edit info on the fly</tspan>
                    </text>
                    <text id="Generate-new-qrcode" font-size="14" line-spacing="18" fill="#F7F7F7">
                        <tspan x="0" y="54">Generate new qrcode or change </tspan>
                        <tspan x="0" y="72">description at any time.</tspan>
                    </text>
                </g>
                <g id="icon">
                    <rect id="Rectangle-15" fill="#00944D" x="34" y="48" width="216" height="38"></rect>
                    <rect id="Rectangle-15-Copy" fill="#78B338" x="34" y="0" width="216" height="38"></rect>
                    <rect id="Rectangle-16" fill="#18A765" x="22" y="96" width="240" height="112"></rect>
                    <g id="Group" transform="translate(53.000000, 127.000000)" fill="#D9FBFF">
                        <rect id="Rectangle-path" x="0.0202600453" y="0.0202435065" width="2.00504586" height="2.00340909"></rect>
                        <rect id="Rectangle-path" x="2.02530591" y="0.0202435065" width="2.00504586" height="2.00340909"></rect>
                        <rect id="Rectangle-path" x="4.03035177" y="0.0202435065" width="2.00504586" height="2.00340909"></rect>
                        <rect id="Rectangle-path" x="6.03539763" y="0.0202435065" width="2.00504586" height="2.00340909"></rect>
                        <rect id="Rectangle-path" x="8.0404435" y="0.0202435065" width="2.00504586" height="2.00340909"></rect>
                        <rect id="Rectangle-path" x="10.0454894" y="0.0202435065" width="2.00504586" height="2.00340909"></rect>
                        <rect id="Rectangle-path" x="12.0505352" y="0.0202435065" width="2.00504586" height="2.00340909"></rect>
                        <rect id="Rectangle-path" x="16.0606269" y="0.0202435065" width="2.00504586" height="2.00340909"></rect>
                        <rect id="Rectangle-path" x="18.0656728" y="0.0202435065" width="2.00504586" height="2.00340909"></rect>
                        <rect id="Rectangle-path" x="20.0707187" y="0.0202435065" width="2.00504586" height="2.00340909"></rect>
                        <rect id="Rectangle-path" x="26.0858563" y="0.0202435065" width="2.00504586" height="2.00340909"></rect>
                        <rect id="Rectangle-path" x="30.095948" y="0.0202435065" width="2.00504586" height="2.00340909"></rect>
                        <rect id="Rectangle-path" x="32.1009939" y="0.0202435065" width="2.00504586" height="2.00340909"></rect>
                        <rect id="Rectangle-path" x="36.1110856" y="0.0202435065" width="2.00504586" height="2.00340909"></rect>
                        <rect id="Rectangle-path" x="38.1161314" y="0.0202435065" width="2.00504586" height="2.00340909"></rect>
                        <rect id="Rectangle-path" x="40.1211773" y="0.0202435065" width="2.00504586" height="2.00340909"></rect>
                        <rect id="Rectangle-path" x="42.1262232" y="0.0202435065" width="2.00504586" height="2.00340909"></rect>
                        <rect id="Rectangle-path" x="44.131269" y="0.0202435065" width="2.00504586" height="2.00340909"></rect>
                        <rect id="Rectangle-path" x="46.1363149" y="0.0202435065" width="2.00504586" height="2.00340909"></rect>
                        <rect id="Rectangle-path" x="48.1413608" y="0.0202435065" width="2.00504586" height="2.00340909"></rect>
                        <rect id="Rectangle-path" x="0.0202600453" y="2.0236526" width="2.00504586" height="2.00340909"></rect>
                        <rect id="Rectangle-path" x="12.0505352" y="2.0236526" width="2.00504586" height="2.00340909"></rect>
                        <rect id="Rectangle-path" x="22.0757645" y="2.0236526" width="2.00504586" height="2.00340909"></rect>
                        <rect id="Rectangle-path" x="24.0808104" y="2.0236526" width="2.00504586" height="2.00340909"></rect>
                        <rect id="Rectangle-path" x="30.095948" y="2.0236526" width="2.00504586" height="2.00340909"></rect>
                        <rect id="Rectangle-path" x="32.1009939" y="2.0236526" width="2.00504586" height="2.00340909"></rect>
                        <rect id="Rectangle-path" x="36.1110856" y="2.0236526" width="2.00504586" height="2.00340909"></rect>
                        <rect id="Rectangle-path" x="48.1413608" y="2.0236526" width="2.00504586" height="2.00340909"></rect>
                        <rect id="Rectangle-path" x="0.0202600453" y="4.02706169" width="2.00504586" height="2.00340909"></rect>
                        <rect id="Rectangle-path" x="4.03035177" y="4.02706169" width="2.00504586" height="2.00340909"></rect>
                        <rect id="Rectangle-path" x="6.03539763" y="4.02706169" width="2.00504586" height="2.00340909"></rect>
                        <rect id="Rectangle-path" x="8.0404435" y="4.02706169" width="2.00504586" height="2.00340909"></rect>
                        <rect id="Rectangle-path" x="12.0505352" y="4.02706169" width="2.00504586" height="2.00340909"></rect>
                        <rect id="Rectangle-path" x="22.0757645" y="4.02706169" width="2.00504586" height="2.00340909"></rect>
                        <rect id="Rectangle-path" x="24.0808104" y="4.02706169" width="2.00504586" height="2.00340909"></rect>
                        <rect id="Rectangle-path" x="30.095948" y="4.02706169" width="2.00504586" height="2.00340909"></rect>
                        <rect id="Rectangle-path" x="36.1110856" y="4.02706169" width="2.00504586" height="2.00340909"></rect>
                        <rect id="Rectangle-path" x="40.1211773" y="4.02706169" width="2.00504586" height="2.00340909"></rect>
                        <rect id="Rectangle-path" x="42.1262232" y="4.02706169" width="2.00504586" height="2.00340909"></rect>
                        <rect id="Rectangle-path" x="44.131269" y="4.02706169" width="2.00504586" height="2.00340909"></rect>
                        <rect id="Rectangle-path" x="48.1413608" y="4.02706169" width="2.00504586" height="2.00340909"></rect>
                        <rect id="Rectangle-path" x="0.0202600453" y="6.03047078" width="2.00504586" height="2.00340909"></rect>
                        <rect id="Rectangle-path" x="4.03035177" y="6.03047078" width="2.00504586" height="2.00340909"></rect>
                        <rect id="Rectangle-path" x="6.03539763" y="6.03047078" width="2.00504586" height="2.00340909"></rect>
                        <rect id="Rectangle-path" x="8.0404435" y="6.03047078" width="2.00504586" height="2.00340909"></rect>
                        <rect id="Rectangle-path" x="12.0505352" y="6.03047078" width="2.00504586" height="2.00340909"></rect>
                        <rect id="Rectangle-path" x="20.0707187" y="6.03047078" width="2.00504586" height="2.00340909"></rect>
                        <rect id="Rectangle-path" x="24.0808104" y="6.03047078" width="2.00504586" height="2.00340909"></rect>
                        <rect id="Rectangle-path" x="26.0858563" y="6.03047078" width="2.00504586" height="2.00340909"></rect>
                        <rect id="Rectangle-path" x="36.1110856" y="6.03047078" width="2.00504586" height="2.00340909"></rect>
                        <rect id="Rectangle-path" x="40.1211773" y="6.03047078" width="2.00504586" height="2.00340909"></rect>
                        <rect id="Rectangle-path" x="42.1262232" y="6.03047078" width="2.00504586" height="2.00340909"></rect>
                        <rect id="Rectangle-path" x="44.131269" y="6.03047078" width="2.00504586" height="2.00340909"></rect>
                        <rect id="Rectangle-path" x="48.1413608" y="6.03047078" width="2.00504586" height="2.00340909"></rect>
                        <rect id="Rectangle-path" x="0.0202600453" y="8.03387987" width="2.00504586" height="2.00340909"></rect>
                        <rect id="Rectangle-path" x="4.03035177" y="8.03387987" width="2.00504586" height="2.00340909"></rect>
                        <rect id="Rectangle-path" x="6.03539763" y="8.03387987" width="2.00504586" height="2.00340909"></rect>
                        <rect id="Rectangle-path" x="8.0404435" y="8.03387987" width="2.00504586" height="2.00340909"></rect>
                        <rect id="Rectangle-path" x="12.0505352" y="8.03387987" width="2.00504586" height="2.00340909"></rect>
                        <rect id="Rectangle-path" x="16.0606269" y="8.03387987" width="2.00504586" height="2.00340909"></rect>
                        <rect id="Rectangle-path" x="18.0656728" y="8.03387987" width="2.00504586" height="2.00340909"></rect>
                        <rect id="Rectangle-path" x="28.0909021" y="8.03387987" width="2.00504586" height="2.00340909"></rect>
                        <rect id="Rectangle-path" x="32.1009939" y="8.03387987" width="2.00504586" height="2.00340909"></rect>
                        <rect id="Rectangle-path" x="36.1110856" y="8.03387987" width="2.00504586" height="2.00340909"></rect>
                        <rect id="Rectangle-path" x="40.1211773" y="8.03387987" width="2.00504586" height="2.00340909"></rect>
                        <rect id="Rectangle-path" x="42.1262232" y="8.03387987" width="2.00504586" height="2.00340909"></rect>
                        <rect id="Rectangle-path" x="44.131269" y="8.03387987" width="2.00504586" height="2.00340909"></rect>
                        <rect id="Rectangle-path" x="48.1413608" y="8.03387987" width="2.00504586" height="2.00340909"></rect>
                        <rect id="Rectangle-path" x="0.0202600453" y="10.037289" width="2.00504586" height="2.00340909"></rect>
                        <rect id="Rectangle-path" x="12.0505352" y="10.037289" width="2.00504586" height="2.00340909"></rect>
                        <rect id="Rectangle-path" x="16.0606269" y="10.037289" width="2.00504586" height="2.00340909"></rect>
                        <rect id="Rectangle-path" x="18.0656728" y="10.037289" width="2.00504586" height="2.00340909"></rect>
                        <rect id="Rectangle-path" x="24.0808104" y="10.037289" width="2.00504586" height="2.00340909"></rect>
                        <rect id="Rectangle-path" x="30.095948" y="10.037289" width="2.00504586" height="2.00340909"></rect>
                        <rect id="Rectangle-path" x="32.1009939" y="10.037289" width="2.00504586" height="2.00340909"></rect>
                        <rect id="Rectangle-path" x="36.1110856" y="10.037289" width="2.00504586" height="2.00340909"></rect>
                        <rect id="Rectangle-path" x="48.1413608" y="10.037289" width="2.00504586" height="2.00340909"></rect>
                        <rect id="Rectangle-path" x="0.0202600453" y="12.0406981" width="2.00504586" height="2.00340909"></rect>
                        <rect id="Rectangle-path" x="2.02530591" y="12.0406981" width="2.00504586" height="2.00340909"></rect>
                        <rect id="Rectangle-path" x="4.03035177" y="12.0406981" width="2.00504586" height="2.00340909"></rect>
                        <rect id="Rectangle-path" x="6.03539763" y="12.0406981" width="2.00504586" height="2.00340909"></rect>
                        <rect id="Rectangle-path" x="8.0404435" y="12.0406981" width="2.00504586" height="2.00340909"></rect>
                        <rect id="Rectangle-path" x="10.0454894" y="12.0406981" width="2.00504586" height="2.00340909"></rect>
                        <rect id="Rectangle-path" x="12.0505352" y="12.0406981" width="2.00504586" height="2.00340909"></rect>
                        <rect id="Rectangle-path" x="16.0606269" y="12.0406981" width="2.00504586" height="2.00340909"></rect>
                        <rect id="Rectangle-path" x="20.0707187" y="12.0406981" width="2.00504586" height="2.00340909"></rect>
                        <rect id="Rectangle-path" x="24.0808104" y="12.0406981" width="2.00504586" height="2.00340909"></rect>
                        <rect id="Rectangle-path" x="28.0909021" y="12.0406981" width="2.00504586" height="2.00340909"></rect>
                        <rect id="Rectangle-path" x="32.1009939" y="12.0406981" width="2.00504586" height="2.00340909"></rect>
                        <rect id="Rectangle-path" x="36.1110856" y="12.0406981" width="2.00504586" height="2.00340909"></rect>
                        <rect id="Rectangle-path" x="38.1161314" y="12.0406981" width="2.00504586" height="2.00340909"></rect>
                        <rect id="Rectangle-path" x="40.1211773" y="12.0406981" width="2.00504586" height="2.00340909"></rect>
                        <rect id="Rectangle-path" x="42.1262232" y="12.0406981" width="2.00504586" height="2.00340909"></rect>
                        <rect id="Rectangle-path" x="44.131269" y="12.0406981" width="2.00504586" height="2.00340909"></rect>
                        <rect id="Rectangle-path" x="46.1363149" y="12.0406981" width="2.00504586" height="2.00340909"></rect>
                        <rect id="Rectangle-path" x="48.1413608" y="12.0406981" width="2.00504586" height="2.00340909"></rect>
                        <rect id="Rectangle-path" x="22.0757645" y="14.0441071" width="2.00504586" height="2.00340909"></rect>
                        <rect id="Rectangle-path" x="28.0909021" y="14.0441071" width="2.00504586" height="2.00340909"></rect>
                        <rect id="Rectangle-path" x="30.095948" y="14.0441071" width="2.00504586" height="2.00340909"></rect>
                        <rect id="Rectangle-path" x="2.02530591" y="16.0475162" width="2.00504586" height="2.00340909"></rect>
                        <rect id="Rectangle-path" x="4.03035177" y="16.0475162" width="2.00504586" height="2.00340909"></rect>
                        <rect id="Rectangle-path" x="6.03539763" y="16.0475162" width="2.00504586" height="2.00340909"></rect>
                        <rect id="Rectangle-path" x="8.0404435" y="16.0475162" width="2.00504586" height="2.00340909"></rect>
                        <rect id="Rectangle-path" x="10.0454894" y="16.0475162" width="2.00504586" height="2.00340909"></rect>
                        <rect id="Rectangle-path" x="12.0505352" y="16.0475162" width="2.00504586" height="2.00340909"></rect>
                        <rect id="Rectangle-path" x="14.0555811" y="16.0475162" width="2.00504586" height="2.00340909"></rect>
                        <rect id="Rectangle-path" x="18.0656728" y="16.0475162" width="2.00504586" height="2.00340909"></rect>
                        <rect id="Rectangle-path" x="20.0707187" y="16.0475162" width="2.00504586" height="2.00340909"></rect>
                        <rect id="Rectangle-path" x="26.0858563" y="16.0475162" width="2.00504586" height="2.00340909"></rect>
                        <rect id="Rectangle-path" x="28.0909021" y="16.0475162" width="2.00504586" height="2.00340909"></rect>
                        <rect id="Rectangle-path" x="30.095948" y="16.0475162" width="2.00504586" height="2.00340909"></rect>
                        <rect id="Rectangle-path" x="38.1161314" y="16.0475162" width="2.00504586" height="2.00340909"></rect>
                        <rect id="Rectangle-path" x="40.1211773" y="16.0475162" width="2.00504586" height="2.00340909"></rect>
                        <rect id="Rectangle-path" x="48.1413608" y="16.0475162" width="2.00504586" height="2.00340909"></rect>
                        <rect id="Rectangle-path" x="0.0202600453" y="18.0509253" width="2.00504586" height="2.00340909"></rect>
                        <rect id="Rectangle-path" x="2.02530591" y="18.0509253" width="2.00504586" height="2.00340909"></rect>
                        <rect id="Rectangle-path" x="4.03035177" y="18.0509253" width="2.00504586" height="2.00340909"></rect>
                        <rect id="Rectangle-path" x="6.03539763" y="18.0509253" width="2.00504586" height="2.00340909"></rect>
                        <rect id="Rectangle-path" x="8.0404435" y="18.0509253" width="2.00504586" height="2.00340909"></rect>
                        <rect id="Rectangle-path" x="10.0454894" y="18.0509253" width="2.00504586" height="2.00340909"></rect>
                        <rect id="Rectangle-path" x="16.0606269" y="18.0509253" width="2.00504586" height="2.00340909"></rect>
                        <rect id="Rectangle-path" x="20.0707187" y="18.0509253" width="2.00504586" height="2.00340909"></rect>
                        <rect id="Rectangle-path" x="22.0757645" y="18.0509253" width="2.00504586" height="2.00340909"></rect>
                        <rect id="Rectangle-path" x="24.0808104" y="18.0509253" width="2.00504586" height="2.00340909"></rect>
                        <rect id="Rectangle-path" x="32.1009939" y="18.0509253" width="2.00504586" height="2.00340909"></rect>
                        <rect id="Rectangle-path" x="34.1060397" y="18.0509253" width="2.00504586" height="2.00340909"></rect>
                        <rect id="Rectangle-path" x="38.1161314" y="18.0509253" width="2.00504586" height="2.00340909"></rect>
                        <rect id="Rectangle-path" x="46.1363149" y="18.0509253" width="2.00504586" height="2.00340909"></rect>
                        <rect id="Rectangle-path" x="12.0505352" y="20.0543344" width="2.00504586" height="2.00340909"></rect>
                        <rect id="Rectangle-path" x="14.0555811" y="20.0543344" width="2.00504586" height="2.00340909"></rect>
                        <rect id="Rectangle-path" x="16.0606269" y="20.0543344" width="2.00504586" height="2.00340909"></rect>
                        <rect id="Rectangle-path" x="20.0707187" y="20.0543344" width="2.00504586" height="2.00340909"></rect>
                        <rect id="Rectangle-path" x="24.0808104" y="20.0543344" width="2.00504586" height="2.00340909"></rect>
                        <rect id="Rectangle-path" x="28.0909021" y="20.0543344" width="2.00504586" height="2.00340909"></rect>
                        <rect id="Rectangle-path" x="30.095948" y="20.0543344" width="2.00504586" height="2.00340909"></rect>
                        <rect id="Rectangle-path" x="36.1110856" y="20.0543344" width="2.00504586" height="2.00340909"></rect>
                        <rect id="Rectangle-path" x="38.1161314" y="20.0543344" width="2.00504586" height="2.00340909"></rect>
                        <rect id="Rectangle-path" x="42.1262232" y="20.0543344" width="2.00504586" height="2.00340909"></rect>
                        <rect id="Rectangle-path" x="46.1363149" y="20.0543344" width="2.00504586" height="2.00340909"></rect>
                        <rect id="Rectangle-path" x="48.1413608" y="20.0543344" width="2.00504586" height="2.00340909"></rect>
                        <rect id="Rectangle-path" x="4.03035177" y="22.0577435" width="2.00504586" height="2.00340909"></rect>
                        <rect id="Rectangle-path" x="14.0555811" y="22.0577435" width="2.00504586" height="2.00340909"></rect>
                        <rect id="Rectangle-path" x="16.0606269" y="22.0577435" width="2.00504586" height="2.00340909"></rect>
                        <rect id="Rectangle-path" x="18.0656728" y="22.0577435" width="2.00504586" height="2.00340909"></rect>
                        <rect id="Rectangle-path" x="20.0707187" y="22.0577435" width="2.00504586" height="2.00340909"></rect>
                        <rect id="Rectangle-path" x="28.0909021" y="22.0577435" width="2.00504586" height="2.00340909"></rect>
                        <rect id="Rectangle-path" x="38.1161314" y="22.0577435" width="2.00504586" height="2.00340909"></rect>
                        <rect id="Rectangle-path" x="40.1211773" y="22.0577435" width="2.00504586" height="2.00340909"></rect>
                        <rect id="Rectangle-path" x="48.1413608" y="22.0577435" width="2.00504586" height="2.00340909"></rect>
                        <rect id="Rectangle-path" x="2.02530591" y="24.0611526" width="2.00504586" height="2.00340909"></rect>
                        <rect id="Rectangle-path" x="10.0454894" y="24.0611526" width="2.00504586" height="2.00340909"></rect>
                        <rect id="Rectangle-path" x="12.0505352" y="24.0611526" width="2.00504586" height="2.00340909"></rect>
                        <rect id="Rectangle-path" x="14.0555811" y="24.0611526" width="2.00504586" height="2.00340909"></rect>
                        <rect id="Rectangle-path" x="16.0606269" y="24.0611526" width="2.00504586" height="2.00340909"></rect>
                        <rect id="Rectangle-path" x="22.0757645" y="24.0611526" width="2.00504586" height="2.00340909"></rect>
                        <rect id="Rectangle-path" x="30.095948" y="24.0611526" width="2.00504586" height="2.00340909"></rect>
                        <rect id="Rectangle-path" x="36.1110856" y="24.0611526" width="2.00504586" height="2.00340909"></rect>
                        <rect id="Rectangle-path" x="40.1211773" y="24.0611526" width="2.00504586" height="2.00340909"></rect>
                        <rect id="Rectangle-path" x="44.131269" y="24.0611526" width="2.00504586" height="2.00340909"></rect>
                        <rect id="Rectangle-path" x="46.1363149" y="24.0611526" width="2.00504586" height="2.00340909"></rect>
                        <rect id="Rectangle-path" x="48.1413608" y="24.0611526" width="2.00504586" height="2.00340909"></rect>
                        <rect id="Rectangle-path" x="0.0202600453" y="26.0645617" width="2.00504586" height="2.00340909"></rect>
                        <rect id="Rectangle-path" x="2.02530591" y="26.0645617" width="2.00504586" height="2.00340909"></rect>
                        <rect id="Rectangle-path" x="4.03035177" y="26.0645617" width="2.00504586" height="2.00340909"></rect>
                        <rect id="Rectangle-path" x="14.0555811" y="26.0645617" width="2.00504586" height="2.00340909"></rect>
                        <rect id="Rectangle-path" x="16.0606269" y="26.0645617" width="2.00504586" height="2.00340909"></rect>
                        <rect id="Rectangle-path" x="26.0858563" y="26.0645617" width="2.00504586" height="2.00340909"></rect>
                        <rect id="Rectangle-path" x="32.1009939" y="26.0645617" width="2.00504586" height="2.00340909"></rect>
                        <rect id="Rectangle-path" x="42.1262232" y="26.0645617" width="2.00504586" height="2.00340909"></rect>
                        <rect id="Rectangle-path" x="46.1363149" y="26.0645617" width="2.00504586" height="2.00340909"></rect>
                        <rect id="Rectangle-path" x="0.0202600453" y="28.0679708" width="2.00504586" height="2.00340909"></rect>
                        <rect id="Rectangle-path" x="8.0404435" y="28.0679708" width="2.00504586" height="2.00340909"></rect>
                        <rect id="Rectangle-path" x="10.0454894" y="28.0679708" width="2.00504586" height="2.00340909"></rect>
                        <rect id="Rectangle-path" x="12.0505352" y="28.0679708" width="2.00504586" height="2.00340909"></rect>
                        <rect id="Rectangle-path" x="14.0555811" y="28.0679708" width="2.00504586" height="2.00340909"></rect>
                        <rect id="Rectangle-path" x="18.0656728" y="28.0679708" width="2.00504586" height="2.00340909"></rect>
                        <rect id="Rectangle-path" x="20.0707187" y="28.0679708" width="2.00504586" height="2.00340909"></rect>
                        <rect id="Rectangle-path" x="24.0808104" y="28.0679708" width="2.00504586" height="2.00340909"></rect>
                        <rect id="Rectangle-path" x="26.0858563" y="28.0679708" width="2.00504586" height="2.00340909"></rect>
                        <rect id="Rectangle-path" x="30.095948" y="28.0679708" width="2.00504586" height="2.00340909"></rect>
                        <rect id="Rectangle-path" x="32.1009939" y="28.0679708" width="2.00504586" height="2.00340909"></rect>
                        <rect id="Rectangle-path" x="34.1060397" y="28.0679708" width="2.00504586" height="2.00340909"></rect>
                        <rect id="Rectangle-path" x="38.1161314" y="28.0679708" width="2.00504586" height="2.00340909"></rect>
                        <rect id="Rectangle-path" x="42.1262232" y="28.0679708" width="2.00504586" height="2.00340909"></rect>
                        <rect id="Rectangle-path" x="46.1363149" y="28.0679708" width="2.00504586" height="2.00340909"></rect>
                        <rect id="Rectangle-path" x="48.1413608" y="28.0679708" width="2.00504586" height="2.00340909"></rect>
                        <rect id="Rectangle-path" x="0.0202600453" y="30.0713799" width="2.00504586" height="2.00340909"></rect>
                        <rect id="Rectangle-path" x="10.0454894" y="30.0713799" width="2.00504586" height="2.00340909"></rect>
                        <rect id="Rectangle-path" x="14.0555811" y="30.0713799" width="2.00504586" height="2.00340909"></rect>
                        <rect id="Rectangle-path" x="16.0606269" y="30.0713799" width="2.00504586" height="2.00340909"></rect>
                        <rect id="Rectangle-path" x="20.0707187" y="30.0713799" width="2.00504586" height="2.00340909"></rect>
                        <rect id="Rectangle-path" x="24.0808104" y="30.0713799" width="2.00504586" height="2.00340909"></rect>
                        <rect id="Rectangle-path" x="32.1009939" y="30.0713799" width="2.00504586" height="2.00340909"></rect>
                        <rect id="Rectangle-path" x="42.1262232" y="30.0713799" width="2.00504586" height="2.00340909"></rect>
                        <rect id="Rectangle-path" x="48.1413608" y="30.0713799" width="2.00504586" height="2.00340909"></rect>
                        <rect id="Rectangle-path" x="0.0202600453" y="32.074789" width="2.00504586" height="2.00340909"></rect>
                        <rect id="Rectangle-path" x="6.03539763" y="32.074789" width="2.00504586" height="2.00340909"></rect>
                        <rect id="Rectangle-path" x="8.0404435" y="32.074789" width="2.00504586" height="2.00340909"></rect>
                        <rect id="Rectangle-path" x="10.0454894" y="32.074789" width="2.00504586" height="2.00340909"></rect>
                        <rect id="Rectangle-path" x="12.0505352" y="32.074789" width="2.00504586" height="2.00340909"></rect>
                        <rect id="Rectangle-path" x="16.0606269" y="32.074789" width="2.00504586" height="2.00340909"></rect>
                        <rect id="Rectangle-path" x="18.0656728" y="32.074789" width="2.00504586" height="2.00340909"></rect>
                        <rect id="Rectangle-path" x="20.0707187" y="32.074789" width="2.00504586" height="2.00340909"></rect>
                        <rect id="Rectangle-path" x="32.1009939" y="32.074789" width="2.00504586" height="2.00340909"></rect>
                        <rect id="Rectangle-path" x="34.1060397" y="32.074789" width="2.00504586" height="2.00340909"></rect>
                        <rect id="Rectangle-path" x="36.1110856" y="32.074789" width="2.00504586" height="2.00340909"></rect>
                        <rect id="Rectangle-path" x="38.1161314" y="32.074789" width="2.00504586" height="2.00340909"></rect>
                        <rect id="Rectangle-path" x="40.1211773" y="32.074789" width="2.00504586" height="2.00340909"></rect>
                        <rect id="Rectangle-path" x="44.131269" y="32.074789" width="2.00504586" height="2.00340909"></rect>
                        <rect id="Rectangle-path" x="16.0606269" y="34.0781981" width="2.00504586" height="2.00340909"></rect>
                        <rect id="Rectangle-path" x="20.0707187" y="34.0781981" width="2.00504586" height="2.00340909"></rect>
                        <rect id="Rectangle-path" x="24.0808104" y="34.0781981" width="2.00504586" height="2.00340909"></rect>
                        <rect id="Rectangle-path" x="26.0858563" y="34.0781981" width="2.00504586" height="2.00340909"></rect>
                        <rect id="Rectangle-path" x="30.095948" y="34.0781981" width="2.00504586" height="2.00340909"></rect>
                        <rect id="Rectangle-path" x="32.1009939" y="34.0781981" width="2.00504586" height="2.00340909"></rect>
                        <rect id="Rectangle-path" x="40.1211773" y="34.0781981" width="2.00504586" height="2.00340909"></rect>
                        <rect id="Rectangle-path" x="42.1262232" y="34.0781981" width="2.00504586" height="2.00340909"></rect>
                        <rect id="Rectangle-path" x="44.131269" y="34.0781981" width="2.00504586" height="2.00340909"></rect>
                        <rect id="Rectangle-path" x="0.0202600453" y="36.0816071" width="2.00504586" height="2.00340909"></rect>
                        <rect id="Rectangle-path" x="2.02530591" y="36.0816071" width="2.00504586" height="2.00340909"></rect>
                        <rect id="Rectangle-path" x="4.03035177" y="36.0816071" width="2.00504586" height="2.00340909"></rect>
                        <rect id="Rectangle-path" x="6.03539763" y="36.0816071" width="2.00504586" height="2.00340909"></rect>
                        <rect id="Rectangle-path" x="8.0404435" y="36.0816071" width="2.00504586" height="2.00340909"></rect>
                        <rect id="Rectangle-path" x="10.0454894" y="36.0816071" width="2.00504586" height="2.00340909"></rect>
                        <rect id="Rectangle-path" x="12.0505352" y="36.0816071" width="2.00504586" height="2.00340909"></rect>
                        <rect id="Rectangle-path" x="16.0606269" y="36.0816071" width="2.00504586" height="2.00340909"></rect>
                        <rect id="Rectangle-path" x="18.0656728" y="36.0816071" width="2.00504586" height="2.00340909"></rect>
                        <rect id="Rectangle-path" x="22.0757645" y="36.0816071" width="2.00504586" height="2.00340909"></rect>
                        <rect id="Rectangle-path" x="24.0808104" y="36.0816071" width="2.00504586" height="2.00340909"></rect>
                        <rect id="Rectangle-path" x="32.1009939" y="36.0816071" width="2.00504586" height="2.00340909"></rect>
                        <rect id="Rectangle-path" x="36.1110856" y="36.0816071" width="2.00504586" height="2.00340909"></rect>
                        <rect id="Rectangle-path" x="40.1211773" y="36.0816071" width="2.00504586" height="2.00340909"></rect>
                        <rect id="Rectangle-path" x="42.1262232" y="36.0816071" width="2.00504586" height="2.00340909"></rect>
                        <rect id="Rectangle-path" x="44.131269" y="36.0816071" width="2.00504586" height="2.00340909"></rect>
                        <rect id="Rectangle-path" x="46.1363149" y="36.0816071" width="2.00504586" height="2.00340909"></rect>
                        <rect id="Rectangle-path" x="48.1413608" y="36.0816071" width="2.00504586" height="2.00340909"></rect>
                        <rect id="Rectangle-path" x="0.0202600453" y="38.0850162" width="2.00504586" height="2.00340909"></rect>
                        <rect id="Rectangle-path" x="12.0505352" y="38.0850162" width="2.00504586" height="2.00340909"></rect>
                        <rect id="Rectangle-path" x="16.0606269" y="38.0850162" width="2.00504586" height="2.00340909"></rect>
                        <rect id="Rectangle-path" x="18.0656728" y="38.0850162" width="2.00504586" height="2.00340909"></rect>
                        <rect id="Rectangle-path" x="20.0707187" y="38.0850162" width="2.00504586" height="2.00340909"></rect>
                        <rect id="Rectangle-path" x="24.0808104" y="38.0850162" width="2.00504586" height="2.00340909"></rect>
                        <rect id="Rectangle-path" x="26.0858563" y="38.0850162" width="2.00504586" height="2.00340909"></rect>
                        <rect id="Rectangle-path" x="30.095948" y="38.0850162" width="2.00504586" height="2.00340909"></rect>
                        <rect id="Rectangle-path" x="32.1009939" y="38.0850162" width="2.00504586" height="2.00340909"></rect>
                        <rect id="Rectangle-path" x="40.1211773" y="38.0850162" width="2.00504586" height="2.00340909"></rect>
                        <rect id="Rectangle-path" x="42.1262232" y="38.0850162" width="2.00504586" height="2.00340909"></rect>
                        <rect id="Rectangle-path" x="48.1413608" y="38.0850162" width="2.00504586" height="2.00340909"></rect>
                        <rect id="Rectangle-path" x="0.0202600453" y="40.0884253" width="2.00504586" height="2.00340909"></rect>
                        <rect id="Rectangle-path" x="4.03035177" y="40.0884253" width="2.00504586" height="2.00340909"></rect>
                        <rect id="Rectangle-path" x="6.03539763" y="40.0884253" width="2.00504586" height="2.00340909"></rect>
                        <rect id="Rectangle-path" x="8.0404435" y="40.0884253" width="2.00504586" height="2.00340909"></rect>
                        <rect id="Rectangle-path" x="12.0505352" y="40.0884253" width="2.00504586" height="2.00340909"></rect>
                        <rect id="Rectangle-path" x="16.0606269" y="40.0884253" width="2.00504586" height="2.00340909"></rect>
                        <rect id="Rectangle-path" x="18.0656728" y="40.0884253" width="2.00504586" height="2.00340909"></rect>
                        <rect id="Rectangle-path" x="24.0808104" y="40.0884253" width="2.00504586" height="2.00340909"></rect>
                        <rect id="Rectangle-path" x="26.0858563" y="40.0884253" width="2.00504586" height="2.00340909"></rect>
                        <rect id="Rectangle-path" x="28.0909021" y="40.0884253" width="2.00504586" height="2.00340909"></rect>
                        <rect id="Rectangle-path" x="30.095948" y="40.0884253" width="2.00504586" height="2.00340909"></rect>
                        <rect id="Rectangle-path" x="32.1009939" y="40.0884253" width="2.00504586" height="2.00340909"></rect>
                        <rect id="Rectangle-path" x="34.1060397" y="40.0884253" width="2.00504586" height="2.00340909"></rect>
                        <rect id="Rectangle-path" x="36.1110856" y="40.0884253" width="2.00504586" height="2.00340909"></rect>
                        <rect id="Rectangle-path" x="38.1161314" y="40.0884253" width="2.00504586" height="2.00340909"></rect>
                        <rect id="Rectangle-path" x="40.1211773" y="40.0884253" width="2.00504586" height="2.00340909"></rect>
                        <rect id="Rectangle-path" x="42.1262232" y="40.0884253" width="2.00504586" height="2.00340909"></rect>
                        <rect id="Rectangle-path" x="44.131269" y="40.0884253" width="2.00504586" height="2.00340909"></rect>
                        <rect id="Rectangle-path" x="46.1363149" y="40.0884253" width="2.00504586" height="2.00340909"></rect>
                        <rect id="Rectangle-path" x="48.1413608" y="40.0884253" width="2.00504586" height="2.00340909"></rect>
                        <rect id="Rectangle-path" x="0.0202600453" y="42.0918344" width="2.00504586" height="2.00340909"></rect>
                        <rect id="Rectangle-path" x="4.03035177" y="42.0918344" width="2.00504586" height="2.00340909"></rect>
                        <rect id="Rectangle-path" x="6.03539763" y="42.0918344" width="2.00504586" height="2.00340909"></rect>
                        <rect id="Rectangle-path" x="8.0404435" y="42.0918344" width="2.00504586" height="2.00340909"></rect>
                        <rect id="Rectangle-path" x="12.0505352" y="42.0918344" width="2.00504586" height="2.00340909"></rect>
                        <rect id="Rectangle-path" x="16.0606269" y="42.0918344" width="2.00504586" height="2.00340909"></rect>
                        <rect id="Rectangle-path" x="22.0757645" y="42.0918344" width="2.00504586" height="2.00340909"></rect>
                        <rect id="Rectangle-path" x="24.0808104" y="42.0918344" width="2.00504586" height="2.00340909"></rect>
                        <rect id="Rectangle-path" x="32.1009939" y="42.0918344" width="2.00504586" height="2.00340909"></rect>
                        <rect id="Rectangle-path" x="34.1060397" y="42.0918344" width="2.00504586" height="2.00340909"></rect>
                        <rect id="Rectangle-path" x="36.1110856" y="42.0918344" width="2.00504586" height="2.00340909"></rect>
                        <rect id="Rectangle-path" x="38.1161314" y="42.0918344" width="2.00504586" height="2.00340909"></rect>
                        <rect id="Rectangle-path" x="40.1211773" y="42.0918344" width="2.00504586" height="2.00340909"></rect>
                        <rect id="Rectangle-path" x="44.131269" y="42.0918344" width="2.00504586" height="2.00340909"></rect>
                        <rect id="Rectangle-path" x="46.1363149" y="42.0918344" width="2.00504586" height="2.00340909"></rect>
                        <rect id="Rectangle-path" x="48.1413608" y="42.0918344" width="2.00504586" height="2.00340909"></rect>
                        <rect id="Rectangle-path" x="0.0202600453" y="44.0952435" width="2.00504586" height="2.00340909"></rect>
                        <rect id="Rectangle-path" x="4.03035177" y="44.0952435" width="2.00504586" height="2.00340909"></rect>
                        <rect id="Rectangle-path" x="6.03539763" y="44.0952435" width="2.00504586" height="2.00340909"></rect>
                        <rect id="Rectangle-path" x="8.0404435" y="44.0952435" width="2.00504586" height="2.00340909"></rect>
                        <rect id="Rectangle-path" x="12.0505352" y="44.0952435" width="2.00504586" height="2.00340909"></rect>
                        <rect id="Rectangle-path" x="16.0606269" y="44.0952435" width="2.00504586" height="2.00340909"></rect>
                        <rect id="Rectangle-path" x="18.0656728" y="44.0952435" width="2.00504586" height="2.00340909"></rect>
                        <rect id="Rectangle-path" x="32.1009939" y="44.0952435" width="2.00504586" height="2.00340909"></rect>
                        <rect id="Rectangle-path" x="34.1060397" y="44.0952435" width="2.00504586" height="2.00340909"></rect>
                        <rect id="Rectangle-path" x="38.1161314" y="44.0952435" width="2.00504586" height="2.00340909"></rect>
                        <rect id="Rectangle-path" x="44.131269" y="44.0952435" width="2.00504586" height="2.00340909"></rect>
                        <rect id="Rectangle-path" x="48.1413608" y="44.0952435" width="2.00504586" height="2.00340909"></rect>
                        <rect id="Rectangle-path" x="0.0202600453" y="46.0986526" width="2.00504586" height="2.00340909"></rect>
                        <rect id="Rectangle-path" x="12.0505352" y="46.0986526" width="2.00504586" height="2.00340909"></rect>
                        <rect id="Rectangle-path" x="16.0606269" y="46.0986526" width="2.00504586" height="2.00340909"></rect>
                        <rect id="Rectangle-path" x="18.0656728" y="46.0986526" width="2.00504586" height="2.00340909"></rect>
                        <rect id="Rectangle-path" x="26.0858563" y="46.0986526" width="2.00504586" height="2.00340909"></rect>
                        <rect id="Rectangle-path" x="30.095948" y="46.0986526" width="2.00504586" height="2.00340909"></rect>
                        <rect id="Rectangle-path" x="32.1009939" y="46.0986526" width="2.00504586" height="2.00340909"></rect>
                        <rect id="Rectangle-path" x="34.1060397" y="46.0986526" width="2.00504586" height="2.00340909"></rect>
                        <rect id="Rectangle-path" x="36.1110856" y="46.0986526" width="2.00504586" height="2.00340909"></rect>
                        <rect id="Rectangle-path" x="38.1161314" y="46.0986526" width="2.00504586" height="2.00340909"></rect>
                        <rect id="Rectangle-path" x="40.1211773" y="46.0986526" width="2.00504586" height="2.00340909"></rect>
                        <rect id="Rectangle-path" x="42.1262232" y="46.0986526" width="2.00504586" height="2.00340909"></rect>
                        <rect id="Rectangle-path" x="48.1413608" y="46.0986526" width="2.00504586" height="2.00340909"></rect>
                        <rect id="Rectangle-path" x="0.0202600453" y="48.1020617" width="2.00504586" height="2.00340909"></rect>
                        <rect id="Rectangle-path" x="2.02530591" y="48.1020617" width="2.00504586" height="2.00340909"></rect>
                        <rect id="Rectangle-path" x="4.03035177" y="48.1020617" width="2.00504586" height="2.00340909"></rect>
                        <rect id="Rectangle-path" x="6.03539763" y="48.1020617" width="2.00504586" height="2.00340909"></rect>
                        <rect id="Rectangle-path" x="8.0404435" y="48.1020617" width="2.00504586" height="2.00340909"></rect>
                        <rect id="Rectangle-path" x="10.0454894" y="48.1020617" width="2.00504586" height="2.00340909"></rect>
                        <rect id="Rectangle-path" x="12.0505352" y="48.1020617" width="2.00504586" height="2.00340909"></rect>
                        <rect id="Rectangle-path" x="22.0757645" y="48.1020617" width="2.00504586" height="2.00340909"></rect>
                        <rect id="Rectangle-path" x="36.1110856" y="48.1020617" width="2.00504586" height="2.00340909"></rect>
                        <rect id="Rectangle-path" x="38.1161314" y="48.1020617" width="2.00504586" height="2.00340909"></rect>
                        <rect id="Rectangle-path" x="40.1211773" y="48.1020617" width="2.00504586" height="2.00340909"></rect>
                        <rect id="Rectangle-path" x="42.1262232" y="48.1020617" width="2.00504586" height="2.00340909"></rect>
                        <rect id="Rectangle-path" x="44.131269" y="48.1020617" width="2.00504586" height="2.00340909"></rect>
                        <rect id="Rectangle-path" x="46.1363149" y="48.1020617" width="2.00504586" height="2.00340909"></rect>
                        <rect id="Rectangle-path" x="48.1413608" y="48.1020617" width="2.00504586" height="2.00340909"></rect>
                    </g>
                    <path d="M0,208 L285,208 C285,208 222.304107,216 137,216 C50.1183036,216 0,208 0,208 Z" id="Rectangle" fill="#006935"></path>
                    <rect id="Rectangle-17" fill="#FFFFFF" x="116" y="127" width="134" height="24" rx="2"></rect>
                    <text id="Back-door" font-family="SFUIText-Medium, SF UI Text" font-size="12" font-weight="400" letter-spacing="-0.289411753" fill="#FF7629">
                        <tspan x="124" y="143">Back door</tspan>
                    </text>
                    <rect id="Rectangle-18" fill="#29CCF6" x="185" y="131" width="4" height="16"></rect>
                </g>
            </g>
        </g>
    </g>
</svg>